<svg width="48" height="48" viewBox="0 0 48 48" fill="none" xmlns="http://www.w3.org/2000/svg">
  <path d="M24 6C14.0589 6 6 14.0589 6 24C6 33.9411 14.0589 42 24 42C33.9411 42 42 33.9411 42 24C42 14.0589 33.9411 6 24 6ZM24 8C32.8366 8 40 15.1634 40 24C40 32.8366 32.8366 40 24 40C15.1634 40 8 32.8366 8 24C8 15.1634 15.1634 8 24 8Z" fill="#6e8efb"/>
  <path d="M17 19C17 17.8954 17.8954 17 19 17H29C30.1046 17 31 17.8954 31 19V21C31 22.1046 30.1046 23 29 23H19C17.8954 23 17 22.1046 17 21V19Z" fill="#6e8efb"/>
  <path d="M17 27C17 25.8954 17.8954 25 19 25H29C30.1046 25 31 25.8954 31 27V29C31 30.1046 30.1046 31 29 31H19C17.8954 31 17 30.1046 17 29V27Z" fill="#6e8efb"/>
  <path d="M13 35C13 33.8954 13.8954 33 15 33H33C34.1046 33 35 33.8954 35 35V37C35 38.1046 34.1046 39 33 39H15C13.8954 39 13 38.1046 13 37V35Z" fill="#6e8efb"/>
</svg>
