<svg width="48" height="48" viewBox="0 0 48 48" fill="none" xmlns="http://www.w3.org/2000/svg">
  <path d="M24 42C24 42 42 30 42 18C42 10 36 6 24 6C12 6 6 10 6 18C6 30 24 42 24 42Z" fill="#7A7E83"/>
  <path d="M24 36C24 36 38 26 38 18C38 12 34 9 24 9C14 9 10 12 10 18C10 26 24 36 24 36Z" fill="#7A7E83"/>
  <circle cx="18" cy="16" r="3" fill="white"/>
  <circle cx="30" cy="16" r="3" fill="white"/>
  <path d="M20 22C20 22 22 24 24 24C26 24 28 22 28 22" stroke="white" stroke-width="2" stroke-linecap="round"/>
</svg>
