<svg width="48" height="48" viewBox="0 0 48 48" fill="none" xmlns="http://www.w3.org/2000/svg">
  <path d="M38 10H32V8C32 6.89543 31.1046 6 30 6H18C16.8954 6 16 6.89543 16 8V10H10C8.89543 10 8 10.8954 8 12V38C8 39.1046 8.89543 40 10 40H38C39.1046 40 40 39.1046 40 38V12C40 10.8954 39.1046 10 38 10ZM18 8H30V10H18V8ZM10 12H38V38H10V12Z" fill="#6e8efb"/>
  <rect x="14" y="16" width="6" height="6" rx="1" fill="#6e8efb"/>
  <rect x="28" y="16" width="6" height="6" rx="1" fill="#6e8efb"/>
  <rect x="14" y="24" width="6" height="6" rx="1" fill="#6e8efb"/>
  <rect x="28" y="24" width="6" height="6" rx="1" fill="#6e8efb"/>
  <rect x="14" y="32" width="6" height="6" rx="1" fill="#6e8efb"/>
  <rect x="28" y="32" width="6" height="6" rx="1" fill="#6e8efb"/>
</svg>
